<svg aria-hidden="true" style="position: absolute; width: 0; height: 0; overflow: hidden;" version="1.1" xmlns="http://www.w3.org/2000/svg" xmlns:xlink="http://www.w3.org/1999/xlink">
<defs>
<symbol id="icon-arrow-expand" viewBox="0 0 19 32">
<path fill="#005fae" style="fill: var(--color1, #005fae)" d="M1.175 25.294l10.5-10.5-10.5-10.5 2.1-4.2 14.7 14.7-14.7 14.7-2.1-4.2z"></path>
</symbol>
<symbol id="icon-back" viewBox="0 0 38 32">
<path  d="M38.4 13.924h-30.417l11.038-10.988-2.949-2.936-16.072 16 16.072 16 2.949-2.936-11.038-10.988h30.417v-4.152z"></path>
</symbol>
<symbol id="icon-replay" viewBox="0 0 32 32">
<path  d="M32 28.773c0 0-3.956-17.301-19.556-17.301v-7.083l-12.444 11.685 12.444 11.893v-7.746c8.468-0.002 15.14 0.748 19.556 8.551z"></path>
</symbol>
<symbol id="icon-statistic" viewBox="0 0 32 32">
<path  d="M30.669 5.765c-0.443-0.445-1.162-0.446-1.607-0.003l-8.628 8.594-2.493-2.494c-0.444-0.444-1.163-0.444-1.607 0l-10.114 10.114c-0.444 0.444-0.444 1.163 0 1.607 0.222 0.222 0.513 0.333 0.803 0.333s0.582-0.111 0.803-0.333l9.31-9.31 2.492 2.492c0.444 0.444 1.161 0.444 1.605 0.002l9.432-9.394c0.445-0.443 0.446-1.162 0.003-1.607z"></path>
<path  d="M29.826 27.4h-26.553v-23.864c0-0.628-0.509-1.136-1.136-1.136s-1.136 0.509-1.136 1.136v25c0 0.628 0.509 1.136 1.136 1.136h27.689c0.628 0 1.136-0.509 1.136-1.136s-0.509-1.136-1.136-1.136z"></path>
<path  d="M29.862 5.394h-8.523c-0.628 0-1.136 0.509-1.136 1.136s0.509 1.136 1.136 1.136h7.386v7.387c0 0.627 0.509 1.136 1.136 1.136s1.136-0.509 1.136-1.137v-8.523c0-0.628-0.509-1.136-1.136-1.136z"></path>
</symbol>
<symbol id="icon-view" viewBox="0 0 32 32">
<path  d="M16 7.429c-8.384 0-15 8.571-15 8.571s6.616 8.572 15 8.572c6.411 0 15-8.572 15-8.572s-8.589-8.571-15-8.571zM16 21.341c-2.944 0-5.341-2.396-5.341-5.34s2.397-5.341 5.341-5.341c2.944 0 5.341 2.397 5.341 5.341s-2.397 5.341-5.341 5.341v-0.001zM16 12.883c-0.414-0.008-0.826 0.067-1.211 0.22s-0.736 0.382-1.031 0.672c-0.296 0.29-0.531 0.636-0.691 1.019s-0.243 0.792-0.243 1.207c0 0.414 0.083 0.825 0.243 1.207s0.395 0.728 0.691 1.019c0.296 0.29 0.646 0.519 1.031 0.672s0.797 0.228 1.211 0.22c0.817-0.015 1.594-0.351 2.166-0.934s0.892-1.367 0.892-2.184-0.32-1.601-0.892-2.184c-0.572-0.583-1.35-0.918-2.166-0.934z"></path>
</symbol>
<symbol id="icon-approval" viewBox="0 0 32 32">
<path d="M31.844 17.068l-1.886-2.995 1.119-3.361c0.074-0.222 0.069-0.463-0.014-0.683s-0.238-0.403-0.44-0.52l-3.052-1.771-0.561-3.5c-0.038-0.231-0.154-0.443-0.328-0.598s-0.397-0.246-0.629-0.256l-3.52-0.139-2.112-2.838c-0.14-0.188-0.34-0.321-0.566-0.377s-0.465-0.031-0.675 0.070l-3.18 1.523-3.181-1.524c-0.21-0.1-0.449-0.124-0.675-0.068s-0.426 0.189-0.566 0.376l-2.112 2.838-3.52 0.139c-0.233 0.009-0.455 0.099-0.629 0.255s-0.29 0.367-0.327 0.598l-0.561 3.5-3.052 1.771c-0.202 0.117-0.357 0.3-0.44 0.52s-0.088 0.46-0.014 0.683l1.119 3.361-1.885 2.996c-0.124 0.198-0.177 0.434-0.149 0.667s0.136 0.449 0.304 0.611l2.542 2.454-0.286 3.533c-0.019 0.234 0.043 0.467 0.175 0.66s0.327 0.334 0.55 0.4l3.384 0.981 1.377 3.264c0.090 0.216 0.253 0.394 0.459 0.504s0.444 0.143 0.672 0.095l3.452-0.713 2.724 2.246c0.185 0.151 0.412 0.23 0.639 0.23s0.453-0.079 0.64-0.23l2.724-2.246 3.452 0.713c0.468 0.1 0.944-0.154 1.131-0.599l1.377-3.264 3.384-0.981c0.224-0.065 0.418-0.206 0.55-0.4s0.194-0.427 0.175-0.66l-0.286-3.533 2.542-2.454c0.168-0.162 0.275-0.378 0.304-0.611s-0.024-0.468-0.148-0.667zM23.297 12.179l-7.067 10.658c-0.267 0.398-0.68 0.664-1.091 0.664-0.41 0-0.868-0.231-1.16-0.526l-5.188-5.307c-0.17-0.176-0.265-0.411-0.265-0.656s0.095-0.481 0.265-0.656l1.28-1.313c0.084-0.085 0.184-0.152 0.293-0.198s0.228-0.070 0.347-0.070c0.119 0 0.237 0.024 0.347 0.070s0.21 0.113 0.293 0.198l3.376 3.453 5.568-8.398c0.066-0.1 0.151-0.186 0.25-0.253s0.211-0.113 0.328-0.136c0.117-0.023 0.238-0.022 0.355 0.003s0.228 0.072 0.326 0.141l1.501 1.039c0.414 0.288 0.52 0.866 0.241 1.288z"></path>
</symbol>
<symbol id="icon-arrow-up" viewBox="0 0 32 32">
<path fill="none" stroke="#fff" style="stroke: var(--color3, #fff)" stroke-linejoin="round" stroke-linecap="round" stroke-miterlimit="4" stroke-width="3.4286" d="M29.715 22.856l-13.714-13.714-13.714 13.714"></path>
</symbol>
<symbol id="icon-check" viewBox="0 0 32 32">
<path fill="#005fae" style="fill: var(--color1, #005fae)" d="M28 0h-24c-2.2 0-4 1.8-4 4v24c0 2.2 1.8 4 4 4h24c2.2 0 4-1.8 4-4v-24c0-2.2-1.8-4-4-4zM14 24.828l-7.414-7.414 2.828-2.828 4.586 4.586 9.586-9.586 2.828 2.828-12.414 12.414z"></path>
</symbol>
<symbol id="icon-comment" viewBox="0 0 32 32">
<path  d="M6.378 24.154l-1.267 2.64c-0.246 0.493-0.141 1.091 0.211 1.514 0.282 0.282 0.634 0.458 1.021 0.458 0.141 0 0.317-0.035 0.458-0.070l6.090-2.182c0.88 0.141 1.795 0.211 2.71 0.211 8.237 0 14.96-5.456 14.96-12.144s-6.723-12.144-14.96-12.144c-8.237 0-14.96 5.456-14.96 12.144 0 3.731 2.147 7.286 5.738 9.574zM15.601 4.548c7.075 0 12.848 4.506 12.848 10.032s-5.773 10.032-12.848 10.032c-0.88 0-1.725-0.070-2.57-0.211-0.211-0.035-0.458 0-0.669 0.070l-4.576 1.619 0.774-1.654c0.317-0.634 0.070-1.443-0.563-1.795-3.309-1.901-5.245-4.928-5.245-8.096 0-5.491 5.773-9.997 12.848-9.997z"></path>
<path fill="none" stroke="#999" style="stroke: var(--color2, #999)" stroke-linejoin="round" stroke-linecap="round" stroke-miterlimit="4" stroke-width="2" d="M9 13h12"></path>
<path fill="none"  style="stroke: var(--color2, #999)" stroke-linejoin="round" stroke-linecap="round" stroke-miterlimit="4" stroke-width="2" d="M9 17h8"></path>
</symbol>
<symbol id="icon-edit" viewBox="0 0 32 32">
<path  d="M25.493 2.912c-0.782-0.78-2.047-0.779-2.828 0.002l-18.203 18.224c-0.594 0.594-1.048 1.329-1.312 2.127l-0.017 0.052-1.633 7.183 7.256-1.63c0.798-0.264 1.534-0.717 2.128-1.312l18.207-18.228c0.781-0.782 0.78-2.049-0.003-2.829l-3.596-3.588zM5.494 27.282l-0.764-0.764 0.552-2.426 2.644 2.645-2.432 0.544zM9.815 25.421l-3.213-3.215 17.48-17.5 3.218 3.211-17.484 17.505z"></path>
</symbol>
<symbol id="icon-photo" viewBox="0 0 32 32">
<path fill="#bdbdbd" style="fill: var(--color4, #bdbdbd)" d="M16 22.222c2.455 0 4.444-1.99 4.444-4.444s-1.99-4.444-4.444-4.444c-2.455 0-4.444 1.99-4.444 4.444s1.99 4.444 4.444 4.444z"></path>
<path fill="#bdbdbd" style="fill: var(--color4, #bdbdbd)" d="M27.855 5.926h-4.696l-1.837-2c-0.276-0.303-0.612-0.545-0.987-0.711s-0.78-0.252-1.19-0.252h-6.282c-0.83 0-1.63 0.356-2.193 0.963l-1.822 2h-4.696c-1.63 0-2.963 1.333-2.963 2.963v17.778c0 1.63 1.333 2.963 2.963 2.963h23.704c1.63 0 2.963-1.333 2.963-2.963v-17.778c0-1.63-1.333-2.963-2.963-2.963zM16.003 25.186c-4.089 0-7.407-3.319-7.407-7.407s3.319-7.407 7.407-7.407 7.407 3.319 7.407 7.407c0 4.089-3.319 7.407-7.407 7.407z"></path>
</symbol>
<symbol id="icon-list" viewBox="0 0 26 32">
<path fill="#1a96f0" style="fill: var(--color5, #1a96f0)" d="M23.273 2.909v26.182h-20.364v-26.182h20.364zM0 0v32h26.182v-32h-26.182z"></path>
<path fill="#4fcb44" style="fill: var(--color6, #4fcb44)" d="M7.273 8.727h11.636c0.803 0 1.455 0.651 1.455 1.455s-0.651 1.455-1.455 1.455h-11.636c-0.803 0-1.455-0.651-1.455-1.455s0.651-1.455 1.455-1.455z"></path>
<path fill="#4fcb44" style="fill: var(--color6, #4fcb44)" d="M7.273 14.545h11.636c0.803 0 1.455 0.651 1.455 1.455s-0.651 1.455-1.455 1.455h-11.636c-0.803 0-1.455-0.651-1.455-1.455s0.651-1.455 1.455-1.455z"></path>
<path fill="#4fcb44" style="fill: var(--color6, #4fcb44)" d="M7.273 20.364h8.727c0.803 0 1.455 0.651 1.455 1.455s-0.651 1.455-1.455 1.455h-8.727c-0.803 0-1.455-0.651-1.455-1.455s0.651-1.455 1.455-1.455z"></path>
</symbol>
<symbol id="icon-plus" viewBox="0 0 32 32">
<path fill="#1a96f0" style="fill: var(--color5, #1a96f0)" d="M10.667 0h10.667v10.667l-10.667 10.667h-10.667v-10.667h10.667v-10.667z"></path>
<path fill="#4fcb44" style="fill: var(--color6, #4fcb44)" d="M21.333 32h-10.667v-10.667l10.667-10.667h10.667v10.667h-10.667v10.667z"></path>
</symbol>
<symbol id="icon-search" viewBox="0 0 32 32">
<path d="M22.222 19.556h-1.404l-0.498-0.48c1.802-2.091 2.793-4.76 2.791-7.52 0-2.285-0.678-4.52-1.947-6.42s-3.075-3.381-5.186-4.256c-2.111-0.875-4.435-1.103-6.676-0.658s-4.301 1.546-5.917 3.163c-1.616 1.616-2.717 3.675-3.163 5.917s-0.217 4.565 0.658 6.676c0.875 2.112 2.356 3.916 4.256 5.186s4.134 1.947 6.42 1.947c2.862 0 5.493-1.049 7.52-2.791l0.48 0.498v1.404l8.889 8.871 2.649-2.649-8.871-8.889zM11.556 19.556c-4.427 0-8-3.573-8-8s3.573-8 8-8c4.427 0 8 3.573 8 8s-3.573 8-8 8z"></path>
</symbol>
<symbol id="icon-full-screen" viewBox="0 0 28 32">
<path d="M0 11.25v-7.75c0-0.831 0.669-1.5 1.5-1.5h7.75c0.412 0 0.75 0.337 0.75 0.75v2.5c0 0.412-0.338 0.75-0.75 0.75h-5.25v5.25c0 0.412-0.337 0.75-0.75 0.75h-2.5c-0.412 0-0.75-0.338-0.75-0.75zM18 2.75v2.5c0 0.412 0.337 0.75 0.75 0.75h5.25v5.25c0 0.412 0.337 0.75 0.75 0.75h2.5c0.413 0 0.75-0.338 0.75-0.75v-7.75c0-0.831-0.669-1.5-1.5-1.5h-7.75c-0.413 0-0.75 0.337-0.75 0.75zM27.25 20h-2.5c-0.413 0-0.75 0.337-0.75 0.75v5.25h-5.25c-0.413 0-0.75 0.337-0.75 0.75v2.5c0 0.413 0.337 0.75 0.75 0.75h7.75c0.831 0 1.5-0.669 1.5-1.5v-7.75c0-0.413-0.337-0.75-0.75-0.75zM10 29.25v-2.5c0-0.413-0.338-0.75-0.75-0.75h-5.25v-5.25c0-0.413-0.337-0.75-0.75-0.75h-2.5c-0.412 0-0.75 0.337-0.75 0.75v7.75c0 0.831 0.669 1.5 1.5 1.5h7.75c0.412 0 0.75-0.337 0.75-0.75z"></path>
</symbol>
<symbol id="icon-close" viewBox="0 0 32 32">
<path fill="#fff" style="fill: var(--color1, #fff)" d="M20.804 16.782l10.055-10.058c0.272-0.262 0.488-0.576 0.637-0.923s0.228-0.72 0.231-1.098c0.003-0.378-0.069-0.752-0.212-1.102s-0.354-0.667-0.621-0.934-0.585-0.478-0.934-0.621c-0.35-0.143-0.724-0.215-1.102-0.212s-0.751 0.082-1.098 0.231c-0.347 0.149-0.661 0.366-0.923 0.637l-10.058 10.055-10.055-10.055c-0.262-0.272-0.576-0.488-0.923-0.637s-0.72-0.228-1.098-0.231c-0.378-0.003-0.752 0.069-1.102 0.212s-0.667 0.354-0.934 0.621c-0.267 0.267-0.478 0.585-0.621 0.934s-0.215 0.724-0.212 1.102c0.003 0.378 0.082 0.751 0.231 1.098s0.366 0.661 0.637 0.923l10.055 10.055-10.055 10.058c-0.272 0.262-0.488 0.576-0.637 0.923s-0.228 0.72-0.231 1.098c-0.003 0.378 0.069 0.752 0.212 1.102s0.354 0.667 0.621 0.934c0.267 0.267 0.585 0.478 0.934 0.621s0.724 0.215 1.102 0.212 0.751-0.082 1.098-0.231c0.347-0.149 0.661-0.366 0.923-0.637l10.055-10.055 10.058 10.055c0.262 0.272 0.576 0.488 0.923 0.637s0.72 0.228 1.098 0.231c0.378 0.003 0.752-0.069 1.102-0.212s0.667-0.354 0.934-0.621 0.478-0.585 0.621-0.934c0.143-0.35 0.215-0.724 0.212-1.102s-0.082-0.751-0.231-1.098c-0.149-0.347-0.366-0.661-0.637-0.923l-10.055-10.055z"></path>
</symbol>
</defs>
</svg>
