<svg width="20" height="20" viewBox="0 0 20 20" fill="none" xmlns="http://www.w3.org/2000/svg">
<path d="M19.9025 10.6673L18.7237 8.79531L19.4229 6.69439C19.469 6.55543 19.466 6.4047 19.4144 6.26773C19.3628 6.13075 19.2657 6.01595 19.1396 5.94277L17.2321 4.83566L16.8813 2.64801C16.8577 2.50337 16.7853 2.37134 16.6763 2.27414C16.5674 2.17694 16.4284 2.12052 16.283 2.11438L14.0828 2.02765L12.7628 0.254093C12.6756 0.136726 12.5506 0.0534254 12.4093 0.0183799C12.2679 -0.0166657 12.1189 -0.00128854 11.9875 0.0618921L10 1.01352L8.01174 0.0611108C7.88018 -0.00138882 7.73124 -0.0163205 7.59002 0.0188318C7.4488 0.0539842 7.32393 0.137072 7.23646 0.254093L5.91638 2.02765L3.71626 2.11438C3.57091 2.12023 3.43203 2.17647 3.32313 2.27357C3.21424 2.37067 3.14202 2.50267 3.11869 2.64723L2.76792 4.83488L0.860365 5.94199C0.734158 6.01505 0.636928 6.1298 0.58516 6.26678C0.533392 6.40377 0.530272 6.55456 0.576328 6.6936L1.27556 8.79453L0.0975 10.6673C0.0197883 10.7913 -0.013003 10.9385 0.00467382 11.084C0.0223507 11.2295 0.0894103 11.3644 0.194507 11.4658L1.7831 12.9995L1.6046 15.2075C1.59273 15.3536 1.63136 15.4993 1.71394 15.6201C1.79653 15.7408 1.91801 15.8291 2.05782 15.87L4.17258 16.4833L5.03323 18.5233C5.08973 18.6585 5.19113 18.7698 5.32009 18.838C5.44905 18.9063 5.59755 18.9274 5.74022 18.8976L7.89766 18.4522L9.60033 19.8562C9.71596 19.9508 9.85798 20 10 20C10.142 20 10.2833 19.9508 10.3997 19.8562L12.1023 18.4522L14.2598 18.8976C14.5524 18.9601 14.8496 18.8015 14.9668 18.5233L15.8274 16.4833L17.9422 15.87C18.0821 15.8292 18.2036 15.741 18.2862 15.6202C18.3689 15.4994 18.4074 15.3536 18.3954 15.2075L18.2169 12.9995L19.8055 11.4658C19.9106 11.3644 19.9776 11.2295 19.9953 11.084C20.013 10.9385 19.9802 10.7913 19.9025 10.6673ZM14.5609 7.61164L10.1443 14.273C9.97749 14.5215 9.71907 14.6879 9.46219 14.6879C9.20609 14.6879 8.91973 14.5434 8.73735 14.359L5.49498 11.0423C5.3887 10.9326 5.32922 10.7854 5.32922 10.6322C5.32922 10.4789 5.3887 10.3317 5.49498 10.222L6.2951 9.40161C6.34753 9.34852 6.40987 9.3064 6.47852 9.27766C6.54718 9.24891 6.6208 9.23412 6.69516 9.23412C6.76951 9.23412 6.84314 9.24891 6.91179 9.27766C6.98045 9.3064 7.04278 9.34852 7.09521 9.40161L9.20532 11.5596L12.6852 6.31076C12.7264 6.24817 12.7796 6.19448 12.8417 6.15281C12.9038 6.11115 12.9735 6.08235 13.0467 6.06809C13.12 6.05384 13.1953 6.05441 13.2684 6.06979C13.3414 6.08516 13.4106 6.11502 13.4721 6.15763L14.4103 6.80689C14.6688 6.98659 14.7355 7.34834 14.5609 7.61164Z" fill="#005FAE"/>
</svg>
