<svg width="15" height="15" viewBox="0 0 15 15" fill="none" xmlns="http://www.w3.org/2000/svg">
<path d="M9.75176 7.86642L14.4651 3.15176C14.5924 3.02876 14.694 2.88164 14.7639 2.71897C14.8338 2.55629 14.8706 2.38133 14.8721 2.20429C14.8736 2.02726 14.8399 1.85168 14.7729 1.68782C14.7058 1.52396 14.6068 1.37509 14.4816 1.2499C14.3564 1.12471 14.2076 1.0257 14.0437 0.958663C13.8798 0.891622 13.7043 0.857887 13.5272 0.859425C13.3502 0.860964 13.1752 0.897745 13.0126 0.967624C12.8499 1.0375 12.7028 1.13908 12.5798 1.26643L7.86509 5.97976L3.15176 1.26643C3.02876 1.13908 2.88164 1.0375 2.71897 0.967624C2.55629 0.897745 2.38133 0.860964 2.20429 0.859425C2.02726 0.857887 1.85168 0.891622 1.68782 0.958663C1.52396 1.0257 1.37509 1.12471 1.2499 1.2499C1.12471 1.37509 1.0257 1.52396 0.958663 1.68782C0.891622 1.85168 0.857887 2.02726 0.859425 2.20429C0.860964 2.38133 0.897745 2.55629 0.967624 2.71897C1.0375 2.88164 1.13908 3.02876 1.26643 3.15176L5.97976 7.86509L1.26643 12.5798C1.13908 12.7028 1.0375 12.8499 0.967624 13.0126C0.897745 13.1752 0.860964 13.3502 0.859425 13.5272C0.857887 13.7043 0.891622 13.8798 0.958663 14.0437C1.0257 14.2076 1.12471 14.3564 1.2499 14.4816C1.37509 14.6068 1.52396 14.7058 1.68782 14.7729C1.85168 14.8399 2.02726 14.8736 2.20429 14.8721C2.38133 14.8706 2.55629 14.8338 2.71897 14.7639C2.88164 14.694 3.02876 14.5924 3.15176 14.4651L7.86509 9.75176L12.5798 14.4651C12.7028 14.5924 12.8499 14.694 13.0126 14.7639C13.1752 14.8338 13.3502 14.8706 13.5272 14.8721C13.7043 14.8736 13.8798 14.8399 14.0437 14.7729C14.2076 14.7058 14.3564 14.6068 14.4816 14.4816C14.6068 14.3564 14.7058 14.2076 14.7729 14.0437C14.8399 13.8798 14.8736 13.7043 14.8721 13.5272C14.8706 13.3502 14.8338 13.1752 14.7639 13.0126C14.694 12.8499 14.5924 12.7028 14.4651 12.5798L9.75176 7.86509V7.86642Z" fill="white"/>
</svg>
