<svg width="16" height="14" viewBox="0 0 16 14" fill="none" xmlns="http://www.w3.org/2000/svg">
<path d="M3.18911 11.077L2.55551 12.397C2.43231 12.6434 2.48511 12.9426 2.66111 13.1538C2.80191 13.2946 2.97791 13.3826 3.17151 13.3826C3.24191 13.3826 3.32991 13.365 3.40031 13.3474L6.44511 12.2562C6.88511 12.3266 7.34271 12.3618 7.80031 12.3618C11.9187 12.3618 15.2803 9.63377 15.2803 6.28977C15.2803 2.94577 11.9187 0.217773 7.80031 0.217773C3.68191 0.217773 0.320312 2.94577 0.320312 6.28977C0.320312 8.15537 1.39391 9.93297 3.18911 11.077ZM7.80031 1.27377C11.3379 1.27377 14.2243 3.52657 14.2243 6.28977C14.2243 9.05297 11.3379 11.3058 7.80031 11.3058C7.36031 11.3058 6.93791 11.2706 6.51551 11.2002C6.40991 11.1826 6.28671 11.2002 6.18111 11.2354L3.89311 12.045L4.28031 11.2178C4.43871 10.901 4.31551 10.4962 3.99871 10.3202C2.34431 9.36977 1.37631 7.85617 1.37631 6.27217C1.37631 3.52657 4.26271 1.27377 7.80031 1.27377Z" fill="#999999"/>
<line x1="4.5" y1="5.5" x2="10.5" y2="5.5" stroke="#999999" stroke-linecap="round" stroke-linejoin="round"/>
<line x1="4.5" y1="7.5" x2="8.5" y2="7.5" stroke="#999999" stroke-linecap="round" stroke-linejoin="round"/>
</svg>
