<svg width="16" height="16" viewBox="0 0 16 16" fill="none" xmlns="http://www.w3.org/2000/svg">
<path d="M12.7466 1.4559C12.3558 1.06598 11.7229 1.06653 11.3328 1.45713L2.23138 10.5692C1.93421 10.8662 1.70734 11.2339 1.57526 11.6326L1.56668 11.6585L0.75 15.25L4.35143 14.4437L4.37817 14.4348C4.77703 14.3029 5.14494 14.0761 5.44236 13.7788L14.546 4.66456C14.9364 4.27366 14.9359 3.64019 14.5447 3.24996L12.7466 1.4559ZM2.74712 13.6412L2.36522 13.2591L2.64101 12.0463L3.96291 13.369L2.74712 13.6412ZM4.90734 12.7104L3.30064 11.1027L12.0405 2.35267L13.6495 3.95804L4.90734 12.7104Z" fill="#999999"/>
</svg>
