<svg width="18" height="16" viewBox="0 0 18 16" fill="none" xmlns="http://www.w3.org/2000/svg">
<path d="M9 11.5C10.3807 11.5 11.5 10.3807 11.5 9C11.5 7.61929 10.3807 6.5 9 6.5C7.61929 6.5 6.5 7.61929 6.5 9C6.5 10.3807 7.61929 11.5 9 11.5Z" fill="#BDBDBD"/>
<path d="M15.6685 2.33366H13.0268L11.9935 1.20866C11.8382 1.03815 11.649 0.901915 11.4381 0.808647C11.2271 0.71538 10.9991 0.667134 10.7685 0.666992H7.23512C6.76846 0.666992 6.31846 0.866992 6.00179 1.20866L4.97679 2.33366H2.33512C1.41846 2.33366 0.668457 3.08366 0.668457 4.00033V14.0003C0.668457 14.917 1.41846 15.667 2.33512 15.667H15.6685C16.5851 15.667 17.3351 14.917 17.3351 14.0003V4.00033C17.3351 3.08366 16.5851 2.33366 15.6685 2.33366ZM9.00179 13.167C6.70179 13.167 4.83512 11.3003 4.83512 9.00033C4.83512 6.70033 6.70179 4.83366 9.00179 4.83366C11.3018 4.83366 13.1685 6.70033 13.1685 9.00033C13.1685 11.3003 11.3018 13.167 9.00179 13.167Z" fill="#BDBDBD"/>
</svg>
