<svg width="30" height="28" viewBox="0 0 30 28" fill="none" xmlns="http://www.w3.org/2000/svg">
<path d="M28.7131 9.8596L19.9233 8.58214L15.994 0.616237C15.8866 0.398135 15.7101 0.221576 15.492 0.114257C14.945 -0.155774 14.2803 0.0692515 14.0068 0.616237L10.0775 8.58214L1.28767 9.8596C1.04533 9.89422 0.823768 10.0085 0.654133 10.1816C0.449054 10.3923 0.336046 10.6759 0.339941 10.97C0.343836 11.264 0.464315 11.5445 0.674905 11.7498L7.03448 17.9501L5.532 26.7054C5.49676 26.909 5.5193 27.1185 5.59705 27.31C5.67481 27.5015 5.80466 27.6674 5.9719 27.7889C6.13914 27.9103 6.33706 27.9825 6.54323 27.9972C6.74939 28.0119 6.95556 27.9685 7.13833 27.872L15.0004 23.7385L22.8624 27.872C23.0771 27.9863 23.3263 28.0244 23.5652 27.9828C24.1676 27.879 24.5726 27.3077 24.4688 26.7054L22.9663 17.9501L29.3259 11.7498C29.499 11.5802 29.6132 11.3586 29.6478 11.1163C29.7413 10.5104 29.3189 9.94961 28.7131 9.8596Z" fill="#BDBDBD"/>
</svg>
