<svg width="16" height="14" viewBox="0 0 16 14" fill="none" xmlns="http://www.w3.org/2000/svg">
<path d="M15.3346 1.88274C15.1129 1.6604 14.7536 1.65982 14.531 1.88121L10.2168 6.17797L8.97006 4.93119C8.74808 4.70941 8.38863 4.70921 8.16665 4.93119L3.10985 9.98802C2.88786 10.2098 2.88786 10.5697 3.10985 10.7914C3.22065 10.9024 3.36611 10.9579 3.51156 10.9579C3.65682 10.9579 3.80248 10.9024 3.91325 10.7914L8.56837 6.13652L9.81439 7.38234C10.0362 7.60411 10.3947 7.60432 10.617 7.38327L15.3329 2.68632C15.5553 2.46492 15.556 2.10507 15.3346 1.88274Z" fill="#999999"/>
<path d="M14.9129 12.6999H1.63637V0.768134C1.63637 0.454306 1.38201 0.199951 1.06818 0.199951C0.754355 0.199951 0.5 0.454306 0.5 0.768134V13.2681C0.5 13.5819 0.754355 13.8363 1.06818 13.8363H14.9129C15.2267 13.8363 15.481 13.5819 15.481 13.2681C15.481 12.9543 15.2267 12.6999 14.9129 12.6999Z" fill="#999999"/>
<path d="M14.9311 1.69702H10.6697C10.3559 1.69702 10.1016 1.95138 10.1016 2.2652C10.1016 2.57903 10.3559 2.83339 10.6697 2.83339H14.3629V6.52675C14.3629 6.84037 14.6173 7.09493 14.9311 7.09493C15.2449 7.09493 15.4993 6.84037 15.4993 6.52654V2.2652C15.4993 1.95138 15.2449 1.69702 14.9311 1.69702Z" fill="#999999"/>
</svg>
