<svg width="18" height="10" viewBox="0 0 18 10" fill="none" xmlns="http://www.w3.org/2000/svg">
<path d="M9 0.179077C4.28375 0.179077 0.5625 5.00033 0.5625 5.00033C0.5625 5.00033 4.28375 9.8222 9 9.8222C12.6062 9.8222 17.4375 5.00033 17.4375 5.00033C17.4375 5.00033 12.6062 0.179077 9 0.179077ZM9 8.00408C7.34375 8.00408 5.99563 6.65658 5.99563 5.00033C5.99563 3.34408 7.34375 1.99595 9 1.99595C10.6562 1.99595 12.0044 3.34408 12.0044 5.00033C12.0044 6.65658 10.6562 8.0047 9 8.0047V8.00408ZM9 3.24658C8.76695 3.24218 8.53536 3.28428 8.31877 3.37042C8.10218 3.45656 7.90494 3.58502 7.73857 3.74828C7.5722 3.91153 7.44004 4.10632 7.34983 4.32124C7.25961 4.53617 7.21314 4.76692 7.21314 5.00002C7.21314 5.23311 7.25961 5.46386 7.34983 5.67879C7.44004 5.89371 7.5722 6.0885 7.73857 6.25175C7.90494 6.41501 8.10218 6.54347 8.31877 6.62961C8.53536 6.71575 8.76695 6.75785 9 6.75345C9.45931 6.74478 9.89688 6.55623 10.2186 6.22834C10.5404 5.90045 10.7206 5.4594 10.7206 5.00002C10.7206 4.54063 10.5404 4.09958 10.2186 3.77169C9.89688 3.4438 9.45931 3.25525 9 3.24658Z" fill="#999999"/>
</svg>
